<svg xmlns="http://www.w3.org/2000/svg" width="28.129" height="19.753"><defs><style>.a{fill:#f0f0f0}.b{fill:#d80027}.c{fill:#0052b4}</style></defs><path class="a" d="M0 0h28.129v19.753H0z"/><path class="b" d="M15.823 0h-3.516v8.025H0v3.7h12.307v8.025h3.516v-8.022h12.306v-3.7H15.823z"/><path class="c" d="M21.634 13.638l6.495 3.608v-3.608zm-4.512 0l11.007 6.115v-1.729l-7.895-4.386zm8.075 6.115l-8.075-4.485v4.487z"/><path class="a" d="M17.122 13.638l11.007 6.115v-1.729l-7.895-4.386z"/><path class="b" d="M17.122 13.638l11.007 6.115v-1.729l-7.895-4.386z"/><path class="c" d="M4.963 13.638L0 16.395v-2.757zm6.046.778v5.337H1.4z"/><path class="b" d="M7.895 13.638L0 18.024v1.729l11.007-6.115z"/><path class="c" d="M6.495 6.115L0 2.507v3.608zm4.512 0L0 0v1.729l7.895 4.386zM2.932 0l8.075 4.487V0z"/><path class="a" d="M11.007 6.115L0 0v1.729l7.895 4.386z"/><path class="b" d="M11.007 6.115L0 0v1.729l7.895 4.386z"/><path class="c" d="M23.166 6.112l4.963-2.757v2.757zm-6.044-.775V0h9.607z"/><path class="b" d="M20.235 6.115l7.895-4.386V0L17.123 6.115z"/></svg>